<svg width="1230" height="672" viewBox="0 0 1230 672" fill="none" xmlns="http://www.w3.org/2000/svg">
<path d="M71.9546 290C71.4362 290 70.939 289.794 70.5725 289.426C70.2059 289.059 70 288.561 70 288.042L70 244.958C70.0001 244.618 70.0886 244.283 70.257 243.988C70.4253 243.692 70.6676 243.446 70.96 243.272C71.2524 243.099 71.5848 243.005 71.9244 243C72.264 242.995 72.5991 243.078 72.8967 243.243L111.988 264.784C112.295 264.953 112.55 265.202 112.728 265.503C112.906 265.805 113 266.149 113 266.5C113 266.85 112.906 267.194 112.728 267.496C112.55 267.798 112.295 268.046 111.988 268.215L72.8967 289.757C72.6081 289.916 72.284 290 71.9546 290ZM73.9091 248.268L73.9091 284.732L106.99 266.5L73.9091 248.268Z" fill="white" fill-opacity="0.31"/>
<path d="M6.45457 35C6.06879 35 5.69882 34.8464 5.42603 34.5729C5.15325 34.2994 5 33.9284 5 33.5417L5 1.45809C5.00004 1.20468 5.06595 0.955645 5.19123 0.735543C5.3165 0.515442 5.49682 0.331869 5.71441 0.202919C5.93201 0.073968 6.17936 0.00409043 6.43209 0.000174191C6.68482 -0.00374204 6.9342 0.0584382 7.15567 0.180585L36.247 16.2224C36.475 16.3483 36.6652 16.5332 36.7977 16.7579C36.9301 16.9826 37 17.2389 37 17.4999C37 17.7609 36.9301 18.0171 36.7977 18.2418C36.6652 18.4665 36.475 18.6515 36.247 18.7774L7.15567 34.8192C6.9409 34.9377 6.69973 34.9999 6.45457 35ZM7.90913 3.9227L7.90913 31.0771L32.5277 17.4999L7.90913 3.9227Z" fill="white" fill-opacity="0.31"/>
<path d="M1134.23 672C1133.64 672 1133.07 671.763 1132.65 671.341C1132.23 670.919 1132 670.347 1132 669.75L1132 620.25C1132 619.859 1132.1 619.474 1132.29 619.135C1132.48 618.795 1132.76 618.512 1133.09 618.313C1133.43 618.114 1133.81 618.006 1134.19 618C1134.58 617.994 1134.96 618.09 1135.3 618.279L1179.85 643.029C1180.2 643.223 1180.49 643.508 1180.69 643.855C1180.89 644.202 1181 644.597 1181 645C1181 645.403 1180.89 645.798 1180.69 646.145C1180.49 646.491 1180.2 646.777 1179.85 646.971L1135.3 671.721C1134.97 671.904 1134.6 672 1134.23 672ZM1136.45 624.052L1136.45 665.947L1174.15 645L1136.45 624.052Z" fill="white" fill-opacity="0.31"/>
<path d="M1226.85 301.519L1195.94 310.427H1228.1C1228.55 310.427 1228.98 310.606 1229.3 310.925C1229.62 311.244 1229.8 311.676 1229.8 312.127V335.927C1229.8 338.181 1228.9 340.343 1227.31 341.937C1225.72 343.531 1223.55 344.427 1221.3 344.427H1190.7C1188.45 344.425 1186.29 343.529 1184.69 341.935C1183.1 340.341 1182.21 338.18 1182.21 335.927V312.368L1181.33 309.332C1181.02 308.259 1180.93 307.136 1181.05 306.027C1181.18 304.917 1181.52 303.843 1182.06 302.866C1182.6 301.889 1183.33 301.028 1184.2 300.332C1185.07 299.635 1186.07 299.118 1187.15 298.809L1216.55 290.333C1217.62 290.023 1218.74 289.928 1219.85 290.053C1220.96 290.178 1222.04 290.52 1223.01 291.06C1223.99 291.6 1224.85 292.327 1225.55 293.2C1226.24 294.073 1226.76 295.074 1227.07 296.147L1228.01 299.411C1228.07 299.626 1228.09 299.851 1228.07 300.073C1228.04 300.295 1227.98 300.51 1227.87 300.706C1227.76 300.902 1227.61 301.075 1227.44 301.214C1227.26 301.353 1227.06 301.457 1226.85 301.519ZM1185.06 310.019L1187.13 309.424L1192.03 300.941L1188.09 302.08C1186.79 302.454 1185.69 303.329 1185.04 304.512C1184.38 305.694 1184.22 307.088 1184.6 308.387L1185.07 310.019H1185.06ZM1191.84 308.067L1199.04 305.986L1203.95 297.497L1196.72 299.581C1196.7 299.629 1196.68 299.677 1196.65 299.724L1191.84 308.071L1191.84 308.067ZM1210.97 302.552L1215.87 294.059L1208.64 296.143C1208.62 296.205 1208.59 296.265 1208.55 296.324L1203.76 304.633L1210.97 302.556L1210.97 302.552ZM1220.09 293.536C1220.07 293.577 1220.05 293.618 1220.02 293.658L1215.68 301.192L1224.27 298.717L1223.8 297.085C1223.55 296.219 1223.07 295.434 1222.42 294.81C1221.77 294.187 1220.97 293.747 1220.09 293.536ZM1185.61 313.827V335.927C1185.61 337.279 1186.14 338.577 1187.1 339.533C1188.06 340.489 1189.35 341.027 1190.71 341.027H1221.31C1222.66 341.027 1223.96 340.489 1224.91 339.533C1225.87 338.577 1226.41 337.279 1226.41 335.927V313.827H1185.61Z" fill="white" fill-opacity="0.31"/>
<path d="M34.7624 595.677L11.3243 602.388H35.7111C36.0529 602.388 36.3808 602.523 36.6225 602.763C36.8642 603.003 37 603.329 37 603.668V621.597C37 623.295 36.321 624.924 35.1124 626.125C33.9038 627.325 32.2645 628 30.5553 628H7.3544C5.64605 627.999 4.00814 627.323 2.80064 626.123C1.59314 624.922 0.914855 623.294 0.914856 621.597V603.85L0.252341 601.563C0.0177977 600.755 -0.0542271 599.909 0.0403807 599.073C0.134988 598.237 0.394376 597.428 0.803727 596.692C1.21308 595.956 1.76437 595.307 2.42613 594.783C3.08788 594.258 3.84713 593.869 4.66051 593.636L26.9514 587.251C27.7648 587.018 28.6163 586.946 29.4575 587.04C30.2986 587.134 31.1129 587.392 31.8538 587.799C32.5947 588.205 33.2477 588.753 33.7755 589.41C34.3033 590.068 34.6956 590.822 34.93 591.63L35.644 594.089C35.6913 594.251 35.706 594.42 35.6873 594.588C35.6686 594.755 35.6168 594.917 35.5349 595.065C35.453 595.212 35.3426 595.342 35.21 595.448C35.0775 595.553 34.9254 595.631 34.7624 595.677ZM3.08027 602.08L4.64505 601.632L8.36235 595.242L5.37201 596.1C4.38755 596.382 3.55607 597.041 3.06016 597.932C2.56425 598.822 2.44446 599.872 2.7271 600.851L3.08285 602.08H3.08027ZM8.21541 600.61L13.6805 599.043L17.4004 592.647L11.9224 594.217C11.906 594.254 11.888 594.29 11.8683 594.325L8.21799 600.613L8.21541 600.61ZM22.7211 596.456L26.4384 590.058L20.9579 591.628C20.9381 591.674 20.9158 591.72 20.8908 591.764L17.2586 598.023L22.7237 596.458L22.7211 596.456ZM29.6402 589.663C29.6242 589.695 29.607 589.726 29.5886 589.756L26.2915 595.431L32.8058 593.567L32.4475 592.337C32.2587 591.685 31.8993 591.093 31.4057 590.624C30.9121 590.154 30.3046 589.823 29.6402 589.663ZM3.49273 604.949V621.597C3.49273 622.616 3.90013 623.593 4.6253 624.314C5.35047 625.034 6.33401 625.439 7.35955 625.439H30.5605C31.586 625.439 32.5695 625.034 33.2947 624.314C34.0199 623.593 34.4273 622.616 34.4273 621.597V604.949H3.49273Z" fill="#0BBBEF" fill-opacity="0.31"/>
</svg>
