<svg width="1336" height="657" viewBox="0 0 1336 657" fill="none" xmlns="http://www.w3.org/2000/svg">
<path d="M-8.90906 632C-9.46361 632 -9.99545 631.781 -10.3876 631.39C-10.7797 630.999 -11 630.469 -11 629.917L-11 584.083C-10.9999 583.721 -10.9052 583.365 -10.7251 583.051C-10.545 582.736 -10.2858 582.474 -9.97303 582.29C-9.66024 582.106 -9.30467 582.006 -8.94137 582C-8.57807 581.995 -8.21958 582.083 -7.90123 582.258L33.9175 605.175C34.2454 605.355 34.5188 605.619 34.7092 605.94C34.8996 606.261 35 606.627 35 607C35 607.373 34.8996 607.739 34.7092 608.06C34.5188 608.381 34.2454 608.645 33.9175 608.825L-7.90123 631.742C-8.20995 631.911 -8.55664 632 -8.90906 632ZM-6.81812 587.604L-6.81812 626.396L28.571 607L-6.81812 587.604Z" fill="#0BBBEF" fill-opacity="0.31"/>
<path d="M557.091 657C556.536 657 556.005 656.781 555.612 656.39C555.22 655.999 555 655.469 555 654.917L555 609.083C555 608.721 555.095 608.365 555.275 608.051C555.455 607.736 555.714 607.474 556.027 607.29C556.34 607.106 556.695 607.006 557.059 607C557.422 606.995 557.78 607.083 558.099 607.258L599.918 630.175C600.245 630.355 600.519 630.619 600.709 630.94C600.9 631.261 601 631.627 601 632C601 632.373 600.9 632.739 600.709 633.06C600.519 633.381 600.245 633.645 599.918 633.825L558.099 656.742C557.79 656.911 557.443 657 557.091 657ZM559.182 612.604L559.182 651.396L594.571 632L559.182 612.604Z" fill="#0BBBEF" fill-opacity="0.31"/>
<path d="M470.5 64C470.102 64 469.721 63.842 469.439 63.5607C469.158 63.2794 469 62.8978 469 62.5L469 29.4998C469 29.2391 469.068 28.9829 469.197 28.7566C469.326 28.5302 469.512 28.3414 469.737 28.2087C469.961 28.0761 470.216 28.0042 470.477 28.0002C470.737 27.9962 470.995 28.0601 471.223 28.1857L501.223 44.6859C501.459 44.8153 501.655 45.0056 501.791 45.2367C501.928 45.4678 502 45.7314 502 45.9999C502 46.2683 501.928 46.5319 501.791 46.763C501.655 46.9942 501.459 47.1844 501.223 47.3139L471.223 63.814C471.002 63.9359 470.753 63.9999 470.5 64ZM472 32.0348L472 59.965L497.388 45.9999L472 32.0348Z" fill="#0BBBEF" fill-opacity="0.31"/>
<path d="M1048.5 491C1048.1 491 1047.72 490.842 1047.44 490.561C1047.16 490.279 1047 489.898 1047 489.5L1047 456.5C1047 456.239 1047.07 455.983 1047.2 455.757C1047.33 455.53 1047.51 455.341 1047.74 455.209C1047.96 455.076 1048.22 455.004 1048.48 455C1048.74 454.996 1048.99 455.06 1049.22 455.186L1079.22 471.686C1079.46 471.815 1079.65 472.006 1079.79 472.237C1079.93 472.468 1080 472.731 1080 473C1080 473.268 1079.93 473.532 1079.79 473.763C1079.65 473.994 1079.46 474.184 1079.22 474.314L1049.22 490.814C1049 490.936 1048.75 491 1048.5 491ZM1050 459.035L1050 486.965L1075.39 473L1050 459.035Z" fill="#0BBBEF" fill-opacity="0.31"/>
<path d="M1332.85 565.519L1301.94 574.427H1334.1C1334.55 574.427 1334.98 574.606 1335.3 574.925C1335.62 575.244 1335.8 575.676 1335.8 576.127V599.927C1335.8 602.181 1334.9 604.343 1333.31 605.937C1331.72 607.531 1329.55 608.427 1327.3 608.427H1296.7C1294.45 608.425 1292.29 607.529 1290.69 605.935C1289.1 604.341 1288.21 602.18 1288.21 599.927V576.368L1287.33 573.332C1287.02 572.259 1286.93 571.136 1287.05 570.027C1287.18 568.917 1287.52 567.843 1288.06 566.866C1288.6 565.889 1289.33 565.028 1290.2 564.332C1291.07 563.635 1292.07 563.118 1293.15 562.809L1322.55 554.333C1323.62 554.023 1324.74 553.928 1325.85 554.053C1326.96 554.178 1328.04 554.52 1329.01 555.06C1329.99 555.6 1330.85 556.327 1331.55 557.2C1332.24 558.073 1332.76 559.074 1333.07 560.147L1334.01 563.411C1334.07 563.626 1334.09 563.851 1334.07 564.073C1334.04 564.295 1333.98 564.51 1333.87 564.706C1333.76 564.902 1333.61 565.075 1333.44 565.214C1333.26 565.353 1333.06 565.457 1332.85 565.519ZM1291.06 574.019L1293.13 573.424L1298.03 564.941L1294.09 566.08C1292.79 566.454 1291.69 567.329 1291.04 568.512C1290.38 569.694 1290.22 571.088 1290.6 572.387L1291.07 574.019H1291.06ZM1297.84 572.067L1305.04 569.986L1309.95 561.497L1302.72 563.581C1302.7 563.629 1302.68 563.677 1302.65 563.724L1297.84 572.071L1297.84 572.067ZM1316.97 566.552L1321.87 558.059L1314.64 560.143C1314.62 560.205 1314.59 560.265 1314.55 560.324L1309.76 568.633L1316.97 566.556L1316.97 566.552ZM1326.09 557.536C1326.07 557.577 1326.05 557.618 1326.02 557.658L1321.68 565.192L1330.27 562.717L1329.8 561.085C1329.55 560.219 1329.07 559.434 1328.42 558.81C1327.77 558.187 1326.97 557.747 1326.09 557.536ZM1291.61 577.827V599.927C1291.61 601.279 1292.14 602.577 1293.1 603.533C1294.06 604.489 1295.35 605.027 1296.71 605.027H1327.31C1328.66 605.027 1329.96 604.489 1330.91 603.533C1331.87 602.577 1332.41 601.279 1332.41 599.927V577.827H1291.61Z" fill="#0BBBEF" fill-opacity="0.31"/>
<path d="M86.5205 170.735L60.5486 178.264H87.5717C87.9505 178.264 88.3138 178.416 88.5817 178.685C88.8495 178.954 89 179.32 89 179.701V199.816C89 201.721 88.2476 203.549 86.9083 204.896C85.569 206.243 83.7526 207 81.8586 207H56.1495C54.2564 206.998 52.4415 206.241 51.1034 204.894C49.7654 203.547 49.0138 201.72 49.0138 199.816V179.905L48.2796 177.339C48.0197 176.432 47.9399 175.483 48.0447 174.545C48.1496 173.608 48.437 172.7 48.8906 171.874C49.3442 171.048 49.9551 170.32 50.6884 169.732C51.4217 169.144 52.263 168.706 53.1644 168.445L77.8651 161.281C78.7663 161.02 79.71 160.94 80.6421 161.045C81.5742 161.15 82.4765 161.44 83.2975 161.896C84.1185 162.352 84.8421 162.967 85.4269 163.704C86.0118 164.442 86.4465 165.288 86.7062 166.195L87.4974 168.954C87.5499 169.135 87.5662 169.325 87.5454 169.513C87.5246 169.701 87.4672 169.883 87.3765 170.048C87.2857 170.214 87.1634 170.36 87.0165 170.478C86.8696 170.596 86.7011 170.683 86.5205 170.735ZM51.4133 177.919L53.1472 177.416L57.2664 170.247L53.9528 171.21C52.8619 171.526 51.9405 172.265 51.391 173.265C50.8415 174.264 50.7087 175.442 51.0219 176.54L51.4161 177.919H51.4133ZM57.1036 176.27L63.1595 174.511L67.2815 167.336L61.2113 169.097C61.1932 169.139 61.1731 169.179 61.1513 169.218L57.1064 176.273L57.1036 176.27ZM73.1775 171.609L77.2966 164.431L71.2236 166.192C71.2017 166.244 71.1769 166.295 71.1493 166.345L67.1244 173.368L73.1803 171.612L73.1775 171.609ZM80.8445 163.988C80.8268 164.023 80.8077 164.058 80.7874 164.092L77.1338 170.46L84.3524 168.368L83.9553 166.988C83.7462 166.256 83.3478 165.593 82.8009 165.066C82.2539 164.539 81.5808 164.167 80.8445 163.988ZM51.8703 181.138V199.816C51.8703 200.959 52.3218 202.056 53.1253 202.864C53.9289 203.672 55.0188 204.126 56.1552 204.126H81.8643C83.0007 204.126 84.0906 203.672 84.8941 202.864C85.6977 202.056 86.1491 200.959 86.1491 199.816V181.138H51.8703Z" fill="#0BBBEF" fill-opacity="0.31"/>
<path d="M1045 7.83063L1024.1 13.8864H1045.85C1046.16 13.8864 1046.45 14.0082 1046.66 14.2249C1046.88 14.4416 1047 14.7356 1047 15.0421V31.2216C1047 32.7541 1046.39 34.2239 1045.32 35.3075C1044.24 36.3912 1042.78 37 1041.25 37H1020.56C1019.04 36.9988 1017.57 36.3894 1016.5 35.3059C1015.42 34.2224 1014.82 32.7533 1014.82 31.2216V15.2062L1014.23 13.1421C1014.02 12.4129 1013.95 11.6494 1014.04 10.8952C1014.12 10.141 1014.35 9.41089 1014.72 8.74658C1015.08 8.08228 1015.57 7.49679 1016.16 7.02355C1016.75 6.55031 1017.43 6.19859 1018.16 5.98847L1038.04 0.226252C1038.76 0.0159572 1039.52 -0.0486206 1040.27 0.036206C1041.02 0.121033 1041.75 0.353602 1042.41 0.720632C1043.07 1.08766 1043.65 1.58196 1044.12 2.1753C1044.59 2.76864 1044.94 3.44939 1045.15 4.17868L1045.79 6.39759C1045.83 6.54358 1045.85 6.69651 1045.83 6.84761C1045.81 6.99871 1045.77 7.14502 1045.69 7.27814C1045.62 7.41126 1045.52 7.52858 1045.4 7.62339C1045.29 7.7182 1045.15 7.78862 1045 7.83063ZM1016.75 13.609L1018.14 13.2045L1021.46 7.4377L1018.79 8.212C1017.91 8.46666 1017.17 9.06123 1016.73 9.86513C1016.29 10.669 1016.18 11.6165 1016.43 12.4996L1016.75 13.609H1016.75ZM1021.33 12.2823L1026.2 10.8678L1029.52 5.09629L1024.63 6.51315C1024.62 6.54624 1024.6 6.57863 1024.59 6.61023L1021.33 12.2846L1021.33 12.2823ZM1034.26 8.53328L1037.58 2.7595L1032.69 4.17637C1032.67 4.21831 1032.65 4.25921 1032.63 4.29887L1029.39 9.94783L1034.27 8.53559L1034.26 8.53328ZM1040.44 2.40355C1040.42 2.43187 1040.41 2.45962 1040.39 2.48676L1037.45 7.60874L1043.26 5.92607L1042.94 4.81661C1042.77 4.22763 1042.45 3.69401 1042.01 3.27013C1041.57 2.84624 1041.03 2.54723 1040.44 2.40355ZM1017.12 16.1978V31.2216C1017.12 32.1411 1017.48 33.023 1018.13 33.6732C1018.77 34.3234 1019.65 34.6886 1020.56 34.6886H1041.26C1042.17 34.6886 1043.05 34.3234 1043.7 33.6732C1044.34 33.023 1044.71 32.1411 1044.71 31.2216V16.1978H1017.12Z" fill="#0BBBEF" fill-opacity="0.31"/>
</svg>
