<svg width="386" height="280" viewBox="0 0 386 280" fill="none" xmlns="http://www.w3.org/2000/svg">
<path d="M2.09094 50C1.53639 50 1.00455 49.7805 0.612422 49.3898C0.220295 48.9991 -1.00583e-07 48.4692 -9.9436e-08 47.9167L-4.3226e-09 2.08299C6.22038e-05 1.72097 0.0948046 1.36521 0.274889 1.05078C0.454974 0.736346 0.714184 0.474099 1.02697 0.289884C1.33976 0.105669 1.69533 0.00584347 2.05863 0.000248845C2.42193 -0.00534578 2.78042 0.0834832 3.09877 0.257979L44.9175 23.1748C45.2454 23.3547 45.5188 23.6189 45.7092 23.9399C45.8996 24.2609 46 24.6269 46 24.9998C46 25.3727 45.8996 25.7388 45.7092 26.0598C45.5188 26.3808 45.2454 26.645 44.9175 26.8248L3.09877 49.7417C2.79005 49.911 2.44336 49.9999 2.09094 50ZM4.18188 5.60385L4.18188 44.3958L39.571 24.9998L4.18188 5.60385Z" fill="#0BBBEF" fill-opacity="0.31"/>
<path d="M330.636 80C329.937 80 329.267 79.7234 328.772 79.2312C328.278 78.7389 328 78.0712 328 77.375L328 19.6246C328 19.1684 328.12 18.7202 328.347 18.324C328.574 17.9278 328.9 17.5974 329.295 17.3653C329.689 17.1331 330.138 17.0074 330.596 17.0003C331.054 16.9933 331.506 17.1052 331.907 17.3251L384.635 46.2003C385.049 46.4269 385.393 46.7598 385.633 47.1643C385.873 47.5687 386 48.0299 386 48.4998C386 48.9696 385.873 49.4308 385.633 49.8353C385.393 50.2398 385.049 50.5727 384.635 50.7993L331.907 79.6745C331.518 79.8879 331.081 79.9999 330.636 80ZM333.273 24.0609L333.273 72.9387L377.894 48.4998L333.273 24.0609Z" fill="#0BBBEF" fill-opacity="0.31"/>
<path d="M173.955 224C173.436 224 172.939 223.794 172.572 223.426C172.206 223.059 172 222.561 172 222.042L172 178.958C172 178.618 172.089 178.283 172.257 177.988C172.425 177.692 172.668 177.446 172.96 177.272C173.252 177.099 173.585 177.005 173.924 177C174.264 176.995 174.599 177.078 174.897 177.243L213.988 198.784C214.295 198.953 214.55 199.202 214.728 199.503C214.906 199.805 215 200.149 215 200.5C215 200.85 214.906 201.194 214.728 201.496C214.55 201.798 214.295 202.046 213.988 202.215L174.897 223.757C174.608 223.916 174.284 224 173.955 224ZM175.909 182.268L175.909 218.732L208.99 200.5L175.909 182.268Z" fill="#0BBBEF" fill-opacity="0.31"/>
</svg>
