<svg width="452" height="487" viewBox="0 0 452 487" fill="none" xmlns="http://www.w3.org/2000/svg">
<g filter="url(#filter0_i_1_174)">
<rect width="452" height="487" rx="20" fill="#EBFAFF"/>
</g>
<mask id="mask0_1_174" style="mask-type:alpha" maskUnits="userSpaceOnUse" x="0" y="0" width="452" height="487">
<rect width="452" height="487" rx="20" fill="#EBFAFF"/>
</mask>
<g mask="url(#mask0_1_174)">
<g filter="url(#filter1_d_1_174)">
<path d="M229.409 214.433C386.359 239.411 386.277 403.936 374.202 493.128C324.196 526.648 265.116 544.008 204.938 542.864C144.76 541.719 86.3819 522.126 37.6847 486.729C24.8534 378.238 36.0372 183.653 229.409 214.433Z" fill="url(#paint0_linear_1_174)"/>
<path d="M404.427 248.75C404.685 249.656 418.077 203.953 418.077 203.953C418.077 203.953 421.124 194.949 414.488 193.319C407.853 191.688 367.119 181.719 367.119 181.719C367.119 181.719 358.066 178.096 354.898 190.778C351.73 203.459 334.531 269.132 334.531 269.132L345.394 282.719L394.275 265.508L404.427 248.75Z" fill="url(#paint1_linear_1_174)"/>
<path d="M397.539 272.528C397.539 272.528 409.782 269.453 411.252 259.915C412.375 252.668 403.517 248.23 398.213 253.289C391.673 259.53 381.466 267.266 369.382 269.594C348.109 273.67 340.492 272.538 340.492 272.538C340.492 272.538 337.632 267.026 339.994 250.567C340.054 250.166 340.027 249.758 339.914 249.369C339.802 248.98 339.606 248.62 339.341 248.314C339.076 248.008 338.748 247.763 338.38 247.596C338.011 247.429 337.611 247.344 337.206 247.347C334.531 247.392 330.661 248.606 327.742 254.186C322.764 263.697 320.953 311.705 320.953 311.705C320.953 311.705 318.889 326.248 314.716 327.811L352.554 355.547C352.554 355.547 359.425 336.163 377.529 335.257C395.633 334.351 403.327 329.369 403.327 329.369C403.327 329.369 417.458 320.886 408.731 313.839C407.925 313.203 407.03 312.689 406.075 312.312C404.522 311.674 401.893 309.989 406.862 307.009C409.135 305.68 411.048 303.814 412.434 301.574C415.367 296.714 414 292.647 405.138 290.871C405.138 290.871 416.082 288.154 414.231 278.874C412.379 269.594 397.539 272.528 397.539 272.528Z" fill="url(#paint2_linear_1_174)"/>
<path d="M191.235 344.564C192.493 344.89 193.643 348.088 194.172 349.052C196.245 352.807 198.246 356.602 200.233 360.375C204.825 369.131 209.368 377.921 213.861 386.744L216.988 392.862L216.056 392.618L248.367 369.787L299.815 333.445L311.556 325.157C311.66 325.095 311.779 325.063 311.9 325.063C312.02 325.063 312.139 325.095 312.244 325.157L352.525 354.682L358.278 358.899C358.428 358.995 358.537 359.144 358.582 359.317C358.628 359.49 358.606 359.674 358.522 359.832C352.476 373.419 345.012 386.494 337.209 399.131C321.391 424.761 302.757 449.341 279.765 468.965C267.938 479.056 254.83 487.82 240.388 493.663C226.04 499.469 210.145 502.218 194.675 502.399C180.522 502.64 166.465 500.041 153.334 494.754C140.208 489.378 128.35 481.321 117.899 471.769C90.3897 446.632 71.6383 412.655 55.788 379.375C53.3741 374.284 51.0115 369.163 48.7002 364.012C48.3472 363.219 49.5149 362.531 49.8724 363.328C65.5688 398.388 83.664 434.114 110.246 462.298C120.352 473.019 131.871 482.512 144.965 489.36C157.361 495.834 170.949 499.704 184.894 500.733C200.199 501.789 215.569 500.101 230.281 495.751C245.217 491.348 258.917 483.522 271.237 474.11C295.61 455.5 315.185 430.889 331.724 405.268C337.952 395.606 343.766 385.702 349.167 375.557C350.944 372.214 352.672 368.844 354.349 365.448C355.255 363.636 355.956 361.616 357.002 359.895C357.128 359.654 357.24 359.406 357.337 359.152L357.581 360.085L328.279 338.604L313.117 327.485C312.855 327.294 311.845 326.787 311.737 326.475C311.628 326.162 312.257 326.162 312.117 326.425C311.818 326.991 310.433 327.616 309.922 327.978L280.805 348.554L240.573 376.983L225.049 387.948C222.474 389.76 219.889 392.079 217.101 393.569C216.975 393.647 216.854 393.733 216.739 393.827C216.582 393.916 216.398 393.939 216.223 393.894C216.049 393.848 215.9 393.737 215.807 393.583C208.769 379.755 201.74 365.914 194.367 352.263C193.552 350.751 192.733 349.238 191.878 347.734C191.597 347.245 191.28 346.774 191.013 346.28C190.796 345.873 190.452 345.764 190.868 345.873C190.708 345.813 190.576 345.695 190.498 345.543C190.421 345.391 190.403 345.215 190.448 345.05C190.494 344.885 190.599 344.744 190.744 344.653C190.889 344.562 191.062 344.529 191.23 344.559L191.235 344.564Z" fill="#0BBBEF"/>
<path d="M258.719 228.596C258.719 228.596 248.31 231.313 251.478 199.157C254.646 167 207.122 182.399 207.122 182.399C207.122 182.399 202.37 205.977 191.838 211.159C191.838 211.159 203.954 250.336 258.719 228.596Z" fill="url(#paint3_linear_1_174)"/>
<path d="M272.523 82.9845C272.523 82.9845 308.696 188.146 251.251 201.919C193.806 215.692 188.339 154.998 189.696 154.998C191.054 154.998 181.55 159.074 176.571 152.28C171.592 145.486 167.519 140.051 172.045 125.558C176.571 111.065 187.886 131.446 187.886 131.446C187.886 131.446 182.21 98.5874 191.837 81.5035C191.837 81.5035 269.016 93.6053 270.998 81.5035C272.98 69.4017 272.523 82.9845 272.523 82.9845Z" fill="url(#paint4_linear_1_174)"/>
<path d="M189.244 131.899C191.055 113.33 190.982 83.3604 190.982 83.3604C190.982 83.3604 254.42 97.0248 278.408 85.702C302.396 74.3792 303.301 70.303 306.922 65.3209C306.922 65.3209 294.249 68.4913 290.175 65.7738C290.175 65.7738 297.87 61.6976 299.68 55.3569C299.68 55.3569 285.197 58.0743 275.239 52.1865C265.282 46.2986 226.114 12.3302 191.838 52.1865C191.838 52.1865 169.936 49.469 170.086 65.7738C170.235 82.0787 171.946 109.57 185.623 132.805" fill="#1D1514"/>
<path d="M252.36 109.072C252.85 111.953 253.643 114.774 254.727 117.487C255.792 120.304 257.118 123.015 258.687 125.585C260.416 128.407 262.638 130.785 264.571 133.448C266.503 136.111 268.966 140.242 267.092 143.58C265.218 146.918 260.303 147.339 256.908 147.407C256.035 147.407 256.035 146.048 256.908 146.048C260.158 145.98 266.064 145.595 266.377 141.247C266.721 136.433 261.656 132.275 259.135 128.747C255.17 123.167 252.074 116.255 251.038 109.435C250.911 108.579 252.219 108.212 252.35 109.072H252.36Z" fill="black"/>
<path d="M262.14 164.989C256.935 169.287 249.602 168.504 244.203 165.098C243.465 164.645 244.144 163.454 244.886 163.92C249.711 166.968 256.459 167.928 261.18 164.029C261.85 163.476 262.814 164.432 262.14 164.989Z" fill="black"/>
<path d="M231.79 125.105C229.791 125.105 228.169 123.483 228.169 121.482C228.169 119.481 229.791 117.859 231.79 117.859C233.79 117.859 235.411 119.481 235.411 121.482C235.411 123.483 233.79 125.105 231.79 125.105Z" fill="black"/>
<path d="M267.092 122.841C265.092 122.841 263.471 121.219 263.471 119.218C263.471 117.217 265.092 115.594 267.092 115.594C269.092 115.594 270.713 117.217 270.713 119.218C270.713 121.219 269.092 122.841 267.092 122.841Z" fill="black"/>
</g>
</g>
<defs>
<filter id="filter0_i_1_174" x="-3" y="0" width="455" height="493" filterUnits="userSpaceOnUse" color-interpolation-filters="sRGB">
<feFlood flood-opacity="0" result="BackgroundImageFix"/>
<feBlend mode="normal" in="SourceGraphic" in2="BackgroundImageFix" result="shape"/>
<feColorMatrix in="SourceAlpha" type="matrix" values="0 0 0 0 0 0 0 0 0 0 0 0 0 0 0 0 0 0 127 0" result="hardAlpha"/>
<feMorphology radius="2" operator="erode" in="SourceAlpha" result="effect1_innerShadow_1_174"/>
<feOffset dx="-3" dy="6"/>
<feGaussianBlur stdDeviation="18"/>
<feComposite in2="hardAlpha" operator="arithmetic" k2="-1" k3="1"/>
<feColorMatrix type="matrix" values="0 0 0 0 0 0 0 0 0 0.168627 0 0 0 0 0.447059 0 0 0 0.38 0"/>
<feBlend mode="normal" in2="shape" result="effect1_innerShadow_1_174"/>
</filter>
<filter id="filter1_d_1_174" x="14.9998" y="7.09009" width="474.776" height="599.827" filterUnits="userSpaceOnUse" color-interpolation-filters="sRGB">
<feFlood flood-opacity="0" result="BackgroundImageFix"/>
<feColorMatrix in="SourceAlpha" type="matrix" values="0 0 0 0 0 0 0 0 0 0 0 0 0 0 0 0 0 0 127 0" result="hardAlpha"/>
<feOffset dx="26" dy="19"/>
<feGaussianBlur stdDeviation="22.5"/>
<feComposite in2="hardAlpha" operator="out"/>
<feColorMatrix type="matrix" values="0 0 0 0 0 0 0 0 0 0.168627 0 0 0 0 0.447059 0 0 0 0.31 0"/>
<feBlend mode="normal" in2="BackgroundImageFix" result="effect1_dropShadow_1_174"/>
<feBlend mode="normal" in="SourceGraphic" in2="effect1_dropShadow_1_174" result="shape"/>
</filter>
<linearGradient id="paint0_linear_1_174" x1="234.695" y1="196.62" x2="237.547" y2="552.975" gradientUnits="userSpaceOnUse">
<stop stop-color="#033684"/>
<stop offset="1" stop-color="#002D72"/>
</linearGradient>
<linearGradient id="paint1_linear_1_174" x1="399.607" y1="184.423" x2="343.463" y2="281.604" gradientUnits="userSpaceOnUse">
<stop stop-color="#55C2FF"/>
<stop offset="1" stop-color="#000102"/>
</linearGradient>
<linearGradient id="paint2_linear_1_174" x1="414.402" y1="282.758" x2="314.7" y2="301.501" gradientUnits="userSpaceOnUse">
<stop offset="0.117708" stop-color="#CCA29B"/>
<stop offset="0.2375" stop-color="#D8AEA7"/>
<stop offset="0.753125" stop-color="#B28176"/>
</linearGradient>
<linearGradient id="paint3_linear_1_174" x1="225.279" y1="178.713" x2="225.279" y2="235.166" gradientUnits="userSpaceOnUse">
<stop stop-color="#926258"/>
<stop offset="1" stop-color="#B28176"/>
</linearGradient>
<linearGradient id="paint4_linear_1_174" x1="284.103" y1="21.7234" x2="259.482" y2="253.01" gradientUnits="userSpaceOnUse">
<stop stop-color="#C3968E"/>
<stop offset="0.483367" stop-color="#E4B5AE"/>
<stop offset="0.99" stop-color="#B28176"/>
</linearGradient>
</defs>
</svg>
