<svg width="31" height="61" viewBox="0 0 31 61" fill="none" xmlns="http://www.w3.org/2000/svg">
<path d="M24.5939 59.4201L1.42519 32.8578C1.15019 32.5416 0.955861 32.199 0.842195 31.8301C0.726695 31.4611 0.668945 31.0659 0.668945 30.6443C0.668945 30.2226 0.726695 29.8274 0.842195 29.4584C0.955861 29.0895 1.15019 28.7469 1.42519 28.4307L24.5939 1.78938C25.2356 1.05154 26.0377 0.682617 27.0002 0.682617C27.9627 0.682617 28.7877 1.07789 29.4752 1.86843C30.1627 2.65898 30.5064 3.58128 30.5064 4.63534C30.5064 5.6894 30.1627 6.6117 29.4752 7.40225L9.2627 30.6443L29.4752 53.8863C30.1169 54.6241 30.4377 55.5327 30.4377 56.6121C30.4377 57.6935 30.0939 58.6295 29.4064 59.4201C28.7189 60.2106 27.9169 60.6059 27.0002 60.6059C26.0835 60.6059 25.2814 60.2106 24.5939 59.4201Z" fill="url(#paint0_linear_1_129)"/>
<defs>
<linearGradient id="paint0_linear_1_129" x1="42.5" y1="-62.4964" x2="7.58446" y2="58.2924" gradientUnits="userSpaceOnUse">
<stop stop-color="#0BBBEF"/>
<stop offset="0.9999" stop-color="#C3F1FF"/>
<stop offset="1" stop-color="#0BBBEF"/>
</linearGradient>
</defs>
</svg>
