<svg width="30" height="30" viewBox="0 0 30 30" fill="none" xmlns="http://www.w3.org/2000/svg">
<rect width="30" height="30" rx="6" fill="url(#paint0_linear_1_172)"/>
<path d="M13.7385 20.705C14.2615 20.705 14.6569 20.5042 14.9247 20.1025L20.7176 11.3724C20.8138 11.2301 20.8849 11.09 20.931 10.9519C20.977 10.8096 21 10.6736 21 10.5439C21 10.1841 20.8745 9.88703 20.6234 9.65272C20.3766 9.41423 20.0711 9.29498 19.7071 9.29498C19.4561 9.29498 19.2427 9.34519 19.0669 9.44561C18.8954 9.54184 18.7322 9.70921 18.5774 9.9477L13.7134 17.5858L11.2782 14.6674C11.0146 14.3619 10.6841 14.2092 10.2866 14.2092C9.91423 14.2092 9.60669 14.3285 9.36402 14.5669C9.12134 14.8054 9 15.1046 9 15.4644C9 15.6276 9.0251 15.7824 9.07531 15.9289C9.12971 16.0711 9.22803 16.2197 9.37029 16.3745L12.6025 20.1841C12.8996 20.5314 13.2782 20.705 13.7385 20.705Z" fill="#F8FBFF"/>
<defs>
<linearGradient id="paint0_linear_1_172" x1="15" y1="0" x2="15" y2="30" gradientUnits="userSpaceOnUse">
<stop stop-color="#0BBBEF"/>
<stop offset="1" stop-color="#0864FC"/>
</linearGradient>
</defs>
</svg>
